<svg xmlns="http://www.w3.org/2000/svg" xmlns:xlink="http://www.w3.org/1999/xlink" version="1.1" x="0px" y="0px" viewBox="0 0 100 125" style="enable-background:new 0 0 100 100;" xml:space="preserve"><path d="M32.7,15.9c1.4-1.4,3.6-1.4,5,0c1.4,1.4,1.4,3.6,0,5L12.1,46.4h84.3c2,0,3.5,1.6,3.5,3.5c0,2-1.6,3.6-3.5,3.6H12.1  l25.6,25.5c1.4,1.4,1.4,3.7,0,5c-1.4,1.4-3.7,1.4-5,0L1.1,52.5c-1.4-1.4-1.4-3.6,0-5L32.7,15.9z"/><text x="0" y="115" fill="#000000" font-size="5px" font-weight="bold" font-family="'Helvetica Neue', Helvetica, Arial-Unicode, Arial, Sans-serif">Created by Rainbow Designs</text><text x="0" y="120" fill="#000000" font-size="5px" font-weight="bold" font-family="'Helvetica Neue', Helvetica, Arial-Unicode, Arial, Sans-serif">from the Noun Project</text></svg>