<svg xmlns="http://www.w3.org/2000/svg" data-name="Layer 1" viewBox="0 0 32 40" x="0px" y="0px"><path d="M27.492,18.66a10.736,10.736,0,0,1-2.187.22,11.012,11.012,0,0,1-11-11,10.674,10.674,0,0,1,.557-3.439,1,1,0,0,0-1.143-1.3A13,13,0,1,0,28.646,19.951a1,1,0,0,0-1.154-1.291ZM16.305,26.88A11,11,0,0,1,12.514,5.55,13.008,13.008,0,0,0,25.305,20.88c.271,0,.542-.008.809-.025A10.959,10.959,0,0,1,16.305,26.88Z"/><text x="0" y="47" fill="#fff" font-size="5px" font-weight="bold" font-family="'Helvetica Neue', Helvetica, Arial-Unicode, Arial, Sans-serif">Created by Anggara Putra</text><text x="0" y="52" fill="#fff" font-size="5px" font-weight="bold" font-family="'Helvetica Neue', Helvetica, Arial-Unicode, Arial, Sans-serif">from the Noun Project</text></svg>